<svg width="81" height="80" viewBox="0 0 81 80" fill="none" xmlns="http://www.w3.org/2000/svg">
<rect x="0.5" width="80" height="80" rx="40" fill="#A4161A"/>
<path d="M51.6175 45.434C51.8403 45.5666 52.1154 45.7218 52.4269 45.8976C53.7918 46.6676 55.8552 47.8317 57.2687 49.2153C58.1527 50.0806 58.9927 51.2209 59.1454 52.6179C59.3078 54.1035 58.6597 55.4977 57.3594 56.7365C55.1162 58.8736 52.4243 60.5862 48.9424 60.5862H32.0564C28.5745 60.5862 25.8826 58.8736 23.6394 56.7365C22.3391 55.4977 21.691 54.1036 21.8534 52.6179C22.0061 51.2209 22.8461 50.0806 23.7301 49.2153C25.1437 47.8317 27.207 46.6676 28.5719 45.8976C28.8834 45.7219 29.1586 45.5666 29.3813 45.434C36.1869 41.3816 44.8119 41.3816 51.6175 45.434Z" fill="white"/>
<path d="M30.4462 29.4692C30.4462 23.917 34.9472 19.416 40.4994 19.416C46.0516 19.416 50.5526 23.917 50.5526 29.4692C50.5526 35.0214 46.0516 39.5224 40.4994 39.5224C34.9472 39.5224 30.4462 35.0214 30.4462 29.4692Z" fill="white"/>
</svg>
