<svg width="25" height="24" viewBox="0 0 25 24" fill="none" xmlns="http://www.w3.org/2000/svg">
<path d="M18.4982 13.25C19.17 13.25 19.62 13.7533 19.8627 14.245L19.8632 14.2459L20.5587 15.6484L20.5645 15.654C20.5693 15.6583 20.5749 15.663 20.5811 15.6676C20.5874 15.6722 20.5935 15.6763 20.5992 15.6798L20.6075 15.6844L21.8626 15.8947C22.4028 15.9855 22.9905 16.275 23.1893 16.8985C23.3877 17.521 23.0775 18.0974 22.6899 18.486L22.6889 18.487L21.7132 19.4708C21.7098 19.4778 21.7053 19.4888 21.7014 19.5027C21.697 19.5181 21.6949 19.5314 21.6942 19.5401L21.9735 20.7579C22.0995 21.3093 22.1116 22.0753 21.5171 22.5123C20.9194 22.9516 20.1913 22.7048 19.7061 22.4159L18.5294 21.7135C18.5283 21.702 18.5142 21.6859 18.4668 21.7142L17.2916 22.4156C16.8047 22.7069 16.0783 22.9496 15.4815 22.5106C14.8883 22.0742 14.897 21.3106 15.024 20.7572L15.3031 19.5401C15.3024 19.5314 15.3003 19.5181 15.2959 19.5027C15.292 19.4888 15.2875 19.4778 15.2841 19.4708L14.3065 18.4851C13.9213 18.0967 13.6123 17.5211 13.8091 16.8998C14.0068 16.2757 14.5941 15.9855 15.1351 15.8946L16.3859 15.6851L16.393 15.681C16.3987 15.6775 16.4049 15.6734 16.4113 15.6687C16.4176 15.6639 16.4233 15.6592 16.4282 15.6547L16.4345 15.6487L17.1315 14.2431C17.3762 13.7522 17.8273 13.25 18.4982 13.25Z" fill="#EDEDED"/>
<path d="M6.24938 6.5C6.24938 3.6005 8.59988 1.25 11.4994 1.25C14.3989 1.25 16.7494 3.6005 16.7494 6.5C16.7494 9.39949 14.3989 11.75 11.4994 11.75C8.59988 11.75 6.24938 9.39949 6.24938 6.5Z" fill="#EDEDED"/>
<path d="M14.9392 14.3825C14.9892 14.3525 15.0141 14.3375 15.0303 14.3244C15.2022 14.1856 15.1658 13.9073 14.9641 13.8172C14.9451 13.8087 14.9184 13.801 14.865 13.7855C14.3204 13.628 13.5835 13.4302 13.1039 13.3625C12.0401 13.2125 10.9583 13.2125 9.89446 13.3625C8.42998 13.5691 6.99791 14.0602 5.69306 14.8372C5.57678 14.9064 5.43314 14.9874 5.27052 15.0792C4.55771 15.4813 3.48009 16.0893 2.74192 16.8118C2.28025 17.2637 1.8416 17.8592 1.76185 18.5888C1.67705 19.3646 2.01551 20.0927 2.69453 20.7396C3.86597 21.8556 5.27176 22.75 7.09007 22.75H12.7937C13.2005 22.75 13.4039 22.75 13.4935 22.6475C13.5832 22.545 13.5509 22.3047 13.4862 21.8241C13.4096 21.2541 13.4887 20.7329 13.5601 20.4219L13.59 20.2912C13.6262 20.1337 13.6442 20.055 13.6231 19.9808C13.6019 19.9066 13.545 19.8493 13.4312 19.7346L13.2397 19.5414C12.678 18.9751 11.936 17.84 12.3772 16.4469C12.8099 15.081 14.0275 14.5747 14.8222 14.4264C14.8314 14.4247 14.836 14.4238 14.8391 14.4232C14.8715 14.4164 14.8982 14.4063 14.9269 14.3899C14.9297 14.3883 14.9329 14.3864 14.9392 14.3825Z" fill="#EDEDED"/>
</svg>
